<?xml version="1.0" encoding="UTF-8"?>
<svg id="Layer_2" xmlns="http://www.w3.org/2000/svg" viewBox="0 0 522.51 765.76">
  <defs>
    <style>
      .cls-1 {
        fill: #00adee;
      }
    </style>
  </defs>
  <g id="Layer_1-2" data-name="Layer_1">
    <g>
      <path class="cls-1" d="M204.95,125.29c.76,41.79,1.53,83.57,2.29,125.36.77,41.99,1.53,83.99,2.3,125.98.21,11.7.43,23.4.64,35.1.2,10.74,1.2,21.83-.02,32.53l.98-7.31c-.4,2.9-1.04,5.69-2.13,8.41.92-2.19,1.85-4.38,2.77-6.57-.8,1.78-1.74,3.39-2.92,4.94l4.3-5.57c-1.04,1.24-2.15,2.33-3.41,3.35l5.57-4.3c-2.07,1.56-4.29,2.77-6.66,3.81l6.57-2.77c-6.84,2.8-14.24,4.29-21.45,5.82-8.03,1.71-16.12,3.11-24.25,4.23l7.31-.98c-20.64,2.77-41.48,3.63-62.27,2.54-9.61-.51-19.22-1.2-28.81.03-6.89.88-13.4,1.75-19.84,4.36-7.04,2.86-12.38,5.63-18.3,10.21-15.98,12.35-25.31,30.74-30.35,50.01-1.99,7.61-3.26,15.37-4.38,23.14-1.82,12.66-3.5,25.34-4.99,38.04C2.9,618.52.26,661.66,0,704.82c-.04,6.9.04,13.62,1.51,20.44,1.65,7.63,6.08,15.64,11.99,20.8,10.95,9.57,24.12,12.63,38.34,13.17,21.41.81,42.87,1.02,64.29,1.53,43.36,1.02,86.73,2.05,130.09,3.07,42.84,1.01,85.94,3.32,128.76.79,22.14-1.31,44.62-3.75,66.2-9.04,19.9-4.88,39.05-13.27,54.43-27.01,18.05-16.11,25.67-39.57,26.76-63.14.44-9.52-.35-19.07-1.37-28.53-1.34-12.36-3.1-24.71-5.35-36.94-3.78-20.5-8.95-40.71-14.68-60.74-5.34-18.64-10.63-37.48-17.16-55.74-6.33-17.71-14.8-36.56-29.76-48.74-9.02-7.34-19.09-13.35-30.71-15.47-10.16-1.85-20.04-2.18-30.3-1.68-7.68.37-15.39.9-23.05-.04l7.31.98c-3.33-.46-6.56-1.22-9.7-2.46l6.57,2.77c-2.31-.99-4.45-2.2-6.47-3.71,1.86,1.43,3.71,2.87,5.57,4.3-1.96-1.56-3.66-3.29-5.2-5.28l4.3,5.57c-1.7-2.36-3.05-4.86-4.2-7.53.92,2.19,1.85,4.38,2.77,6.57-2.26-5.6-3.52-11.49-4.75-17.38-1.54-7.38-2.99-14.77-4.35-22.18-2.68-14.62-5-29.3-6.98-44.02.33,2.44.65,4.87.98,7.31-5.69-42.75-8.42-85.88-8.08-129.01.17-21.56,1.1-43.11,2.79-64.61,1.07-13.65,2.84-27.29-4.57-39.77-7.98-13.45-22.39-19.33-36.71-23.49-26.35-7.65-53.78-8.2-80.66-3.45-6.42,1.13-13.26,7.22-16.43,12.64-3.45,5.89-4.91,14.58-2.77,21.19,2.15,6.65,6.28,13.07,12.64,16.43,6.88,3.64,13.54,4.12,21.19,2.77,2.27-.4,4.54-.75,6.82-1.06l-7.31.98c12.59-1.6,25.28-1.57,37.87.04l-7.31-.98c11.05,1.5,22.23,4.01,32.55,8.3l-6.57-2.77c2.04.9,3.93,1.92,5.71,3.26-1.86-1.43-3.71-2.87-5.57-4.3.95.8,1.79,1.63,2.57,2.59l-4.3-5.57c.57.81,1.03,1.59,1.46,2.48l-2.77-6.57c.62,1.54,1,3.05,1.23,4.68l-.98-7.31c.59,6.18-.51,12.53-1,18.69-.54,6.69-1,13.39-1.39,20.09-.79,13.6-1.27,27.23-1.45,40.85-.36,27.05.49,54.11,2.52,81.09,2.19,29.02,5.75,57.97,10.45,86.69,2.2,13.46,4.71,26.88,7.51,40.23,3.06,14.57,7.92,29.58,19.12,40.06,12.75,11.93,29.22,16.33,46.35,16.43,11.69.07,23.39-1.68,35.05-.15l-7.31-.98c3.83.56,7.52,1.5,11.1,2.96l-6.57-2.77c3.36,1.46,6.47,3.3,9.38,5.54-1.86-1.43-3.71-2.87-5.57-4.3,3.29,2.63,6.16,5.62,8.76,8.93l-4.3-5.57c4.59,6.02,8.09,12.72,11.05,19.67l-2.77-6.57c6.9,16.53,11.53,34.14,16.64,51.28,5.84,19.6,11.29,39.34,15.59,59.35,2.43,11.33,4.48,22.74,6.04,34.23l-.98-7.31c2.03,15.32,3.79,31.06,1.77,46.47.33-2.44.65-4.87.98-7.31-.8,5.54-2.13,10.93-4.23,16.13l2.77-6.57c-1.82,4.28-4.11,8.25-6.95,11.94l4.3-5.57c-3.01,3.78-6.45,7.11-10.25,10.09l5.57-4.3c-5.67,4.31-11.91,7.69-18.45,10.48l6.57-2.77c-15.39,6.38-31.93,9.43-48.36,11.69l7.31-.98c-46.44,6.22-93.59,3.71-140.27,2.61s-95.06-2.24-142.6-3.37c-13.34-.32-26.68-.63-40.03-.95-12.38-.29-25.09.23-37.39-1.22l7.31.98c-2.9-.4-5.71-1.01-8.43-2.12l6.57,2.77c-1.27-.57-2.44-1.22-3.58-2.02l5.57,4.3c-1.1-.85-2.03-1.77-2.9-2.86l4.3,5.57c-.56-.8-1.02-1.59-1.46-2.46.92,2.19,1.85,4.38,2.77,6.57-.66-1.58-1.08-3.16-1.37-4.84l.98,7.31c-.63-4.82-.38-9.75-.34-14.61.04-5.16.12-10.32.22-15.48.23-10.73.6-21.47,1.12-32.19,1.02-21.04,2.62-42.05,4.78-63,1.25-12.12,2.69-24.23,4.31-36.31-.33,2.44-.65,4.87-.98,7.31,2.16-15.96,4.15-32.22,10.37-47.21-.92,2.19-1.85,4.38-2.77,6.57,2.1-4.92,4.65-9.6,7.87-13.88l-4.3,5.57c2.38-3.06,5.04-5.8,8.08-8.21l-5.57,4.3c2.79-2.12,5.75-3.86,8.95-5.29l-6.57,2.77c4.04-1.68,8.21-2.74,12.53-3.38l-7.31.98c15.05-1.98,30.42.4,45.53.45,18.14.06,36.1-1.63,54.04-4.16,7.93-1.12,15.82-2.51,23.64-4.19,7.02-1.51,14.17-3.01,20.86-5.7,11.73-4.72,22.45-11.44,28.6-23.02,5.11-9.62,6.97-20.1,7.13-30.93.24-16.24-.53-32.56-.83-48.8-.31-16.71-.61-33.43-.92-50.14-.61-33.43-1.22-66.86-1.83-100.29-.69-37.61-1.37-75.21-2.06-112.82-.13-7.13-2.98-14.37-8.05-19.45-4.77-4.77-12.6-8.36-19.45-8.05s-14.49,2.65-19.45,8.05c-4.89,5.32-8.19,12.04-8.05,19.45h0Z"/>
      <path class="cls-1" d="M233.72,87.59c-20.43,1.83-41.03,1.38-61.36-1.32,2.44.33,4.87.65,7.31.98-9.08-1.23-18.56-2.44-27.07-6.02l6.57,2.77c-2.65-1.15-5.16-2.55-7.46-4.31l5.57,4.3c-2.1-1.64-3.97-3.51-5.62-5.61l4.3,5.57c-1.94-2.53-3.5-5.3-4.75-8.22.92,2.19,1.85,4.38,2.77,6.57-2-4.78-3.16-9.85-3.87-14.97.33,2.44.65,4.87.98,7.31-.6-4.49-.87-9.02-.96-13.55s-.24-9.6.39-14.32c-.33,2.44-.65,4.87-.98,7.31.27-1.86.71-3.67,1.42-5.41-.92,2.19-1.85,4.38-2.77,6.57.53-1.22,1.17-2.35,1.97-3.4l-4.3,5.57c.83-1.05,1.77-1.97,2.81-2.8l-5.57,4.3c1.57-1.2,3.29-2.14,5.11-2.91l-6.57,2.77c4.66-1.92,9.68-2.73,14.65-3.41l-7.31.98c26.32-3.49,52.76.71,78.98,3.12,13.2,1.21,26.38,1.75,39.64,1.31,13.33-.44,26.63-1.54,39.95-2.2,15.01-.74,30.1-.91,45.02,1.06l-7.31-.98c3.22.44,6.52.83,9.54,2.08l-6.57-2.77c.97.43,1.87.94,2.71,1.58-1.86-1.43-3.71-2.87-5.57-4.3.59.48,1.11,1.01,1.59,1.6-1.43-1.86-2.87-3.71-4.3-5.57.58.77,1.06,1.59,1.45,2.47l-2.77-6.57c.61,1.48.96,3.02,1.17,4.61-.33-2.44-.65-4.87-.98-7.31.53,4.33.36,8.77.43,13.13.08,5.02.16,10.05.23,15.07.08,4.94.15,9.88.23,14.82s.31,9.46-.27,14.15c.33-2.44.65-4.87.98-7.31-.32,2.28-.85,4.51-1.74,6.64.92-2.19,1.85-4.38,2.77-6.57-.77,1.77-1.75,3.41-2.93,4.94l4.3-5.57c-1.35,1.7-2.89,3.2-4.6,4.54,1.86-1.43,3.71-2.87,5.57-4.3-2.24,1.71-4.69,3.09-7.29,4.19l6.57-2.77c-3.12,1.29-6.37,2.15-9.7,2.62l7.31-.98c-4.06.53-8.14.41-12.19-.12l7.31.98c-10.19-1.41-19.75-5.38-29.17-9.35-3.66-1.15-7.31-1.31-10.97-.49-3.66.17-7.07,1.25-10.22,3.26-3.2,1.73-5.78,4.09-7.72,7.08-2.43,2.66-4.07,5.77-4.92,9.35-.33,2.44-.65,4.87-.98,7.31.02,4.96,1.27,9.59,3.75,13.88l4.3,5.57c3.43,3.41,7.48,5.77,12.13,7.07,8.85,3.73,17.84,7.5,27.37,9.08,6.58,1.09,13.52,2.23,20.23,1.5,6.1-.66,12.21-1.34,17.92-3.67,3.68-1.5,7.68-2.98,11.15-5.07.8-.48,1.57-.99,2.32-1.54,2.53-1.85,5.08-3.74,7.45-5.81,3.04-2.66,5.4-6.08,7.78-9.28,1.05-1.41,1.94-2.91,2.65-4.52,1.84-4.13,3.79-8.2,4.48-12.69s1.39-9.18,1.44-13.85c.05-5.15-.12-10.3-.2-15.44-.16-10.33-.29-20.67-.48-31-.08-4.29-.71-8.46-1.36-12.72-.14-.91-.33-1.82-.6-2.7-.14-.46-.32-.91-.49-1.36-1.02-2.56-1.97-5.28-3.33-7.7-.21-.37-.43-.72-.68-1.06-1.52-2.15-3.21-4.46-4.99-6.41-.35-.38-.73-.71-1.12-1.04-2.05-1.73-4.24-3.54-6.53-4.98-2.78-1.75-6.01-2.84-9.06-3.97-1.01-.38-2.06-.65-3.12-.88-4.57-.98-9.37-1.43-13.96-2.02-2.48-.32-4.97-.57-7.47-.78-5.07-.42-10.15-.62-15.23-.67-10.3-.1-20.58.42-30.86,1.04s-20.45,1.34-30.7,1.68-20.34.15-30.5-.58C216.59,3.71,196.45.59,176.12.06c-12.4-.32-24.56.71-36.82,2.59-4.19.64-8.35,1.46-12.28,3.07-3.73,1.52-7.92,2.92-11.24,5.36-2.49,1.83-5.13,3.64-7.36,5.81-.35.34-.68.69-.99,1.05-1.74,2.03-3.42,4.25-4.98,6.42-.62.87-1.15,1.78-1.59,2.75-1.32,2.86-2.84,6.04-3.71,9.19-1.19,4.31-1.62,8.85-1.9,13.3-.25,3.93-.19,7.9-.1,11.84s.29,7.62.73,11.4c.69,6.01,1.38,12.15,2.99,18.01.49,1.79,1.07,3.55,1.76,5.27,1.48,3.71,2.94,7.53,4.88,11.05.87,1.59,1.87,3.1,2.97,4.54,2.44,3.2,4.79,6.6,7.77,9.36.6.56,1.23,1.09,1.87,1.6,2.58,2.05,5.15,4.19,7.92,5.99,3.7,2.4,7.91,3.92,11.95,5.61s8.62,2.9,13.1,3.77c12.13,2.37,24.49,3.92,36.81,4.87,10.22.78,20.49,1,30.73.64,5.04-.18,10.08-.5,15.1-.95,3.79.14,7.32-.65,10.6-2.37,3.41-1.11,6.36-3,8.85-5.69,2.68-2.49,4.58-5.44,5.69-8.85,1.72-3.28,2.51-6.81,2.37-10.6-.33-2.44-.65-4.87-.98-7.31-1.31-4.66-3.66-8.7-7.07-12.13-1.86-1.43-3.71-2.87-5.57-4.3-4.29-2.49-8.92-3.74-13.88-3.75h0Z"/>
      <path class="cls-1" d="M80.86,599.95c.52-.21,1.04-.4,1.58-.54.16-.04.7-.22.81-.18-.04-.02-1.2.07-.09.02.49-.02.98-.04,1.47-.02.28.01.56.04.84.06.6.04-.81-.19.13.05.55.14,1.1.26,1.64.43.27.09.53.19.8.28-.18-.06-.88-.43-.03,0,1,.49,1.96,1.04,2.88,1.68.23.16.45.32.67.49-.15-.11-.74-.62-.03-.01.42.36.85.72,1.25,1.1.82.75,1.6,1.55,2.36,2.36s1.43,1.58,2.13,2.39c.38.45.76.9,1.12,1.35.09.11.66.83.29.36s.42.56.41.54c1.39,1.89,2.57,3.87,3.64,5.95.1.19.34.87,0-.04.1.27.2.53.29.8.07.2.12.4.18.61.04.16.23,1.04.11.36s-.04.21,0,.36c.14.64.27-.74.05-.13-.07.19-.11.4-.16.59.43-1.53-.38.89.3-.53-.2.43-.79.77-1.12,1.09.71-.66-.12.06-.47.29-.47.3-.95.59-1.45.85-.19.1-.37.19-.56.29-.15.08-1.4.55-.34.17-1,.36-1.99.71-3.02.96-.48.12-.97.23-1.45.32-.28.05-.56.1-.84.15-1.39.24,1.04-.08-.36.04-2.69.24-5.36.2-8.05-.07-.32-.03-.64-.07-.95-.1-.35-.04-1.07-.14-.34-.03-.71-.1-1.42-.21-2.13-.33-1.5-.25-2.99-.52-4.49-.81-2.56-.48-5.52.71-6.15,3.49-.56,2.46.74,5.63,3.49,6.15,6.03,1.14,12.25,2.31,18.41,1.71s12.47-2.37,16.65-6.83c2.72-2.9,3.51-6.63,2.59-10.46-.66-2.74-2.15-5.41-3.68-7.76-3.03-4.68-6.86-9.35-11.27-12.8-5.46-4.28-12.94-7.11-19.76-4.31-2.41.99-4.39,3.36-3.49,6.15.75,2.32,3.56,4.56,6.15,3.49h0Z"/>
      <path class="cls-1" d="M84.22,618.98c.53-.24.52-.25,0-.02.27-.11.54-.21.81-.31.41-.15.82-.28,1.23-.41.97-.29,1.96-.52,2.96-.69.29-.05.57-.1.86-.14-.61.08-.62.09-.03.02.44-.03.87-.08,1.31-.1,1.02-.06,2.04-.07,3.06-.05,1.11.03,2.22.1,3.32.21.48.05.96.1,1.44.16-1.03-.12.88.13,1.06.16,2.23.35,4.44.8,6.65,1.24,2.56.51,5.52-.73,6.15-3.49.57-2.49-.75-5.6-3.49-6.15-5.12-1.03-10.32-2.07-15.57-2.14s-10.15.89-14.81,3.08c-2.38,1.11-3.17,4.71-1.79,6.84,1.58,2.45,4.3,2.98,6.84,1.79h0Z"/>
      <path class="cls-1" d="M119.54,589.23c-2.23,13.9-3.32,27.96-3.08,42.04.04,2.61,2.27,5.12,5,5s5.05-2.2,5-5c-.12-6.73.05-13.46.52-20.17.23-3.27.53-6.54.9-9.81.09-.82.19-1.63.29-2.45.06-.49.12-.98.19-1.47l.06-.49c-.06.43-.06.47-.01.11.25-1.71.49-3.41.77-5.12.41-2.57-.66-5.51-3.49-6.15-2.4-.55-5.71.73-6.15,3.49h0Z"/>
      <path class="cls-1" d="M117.67,615.17c3.13,2.78,6.25,5.59,9.25,8.52,1.44,1.41,2.85,2.86,4.21,4.36.69.77,1.37,1.55,2.02,2.35.23.28,1.27,1.69.43.52.32.44.65.87.97,1.31.79,1.08,1.65,1.93,2.99,2.3,1.2.33,2.79.18,3.85-.5,2.09-1.35,3.44-4.58,1.79-6.84-5.23-7.21-11.82-13.19-18.45-19.08-1.95-1.74-5.17-2.07-7.07,0-1.74,1.9-2.09,5.22,0,7.07h0Z"/>
      <path class="cls-1" d="M126.16,616.63c3.74-3.2,7.64-6.43,10.96-10.09,3.53-3.89,5-8.58,6.01-13.62.51-2.56-.73-5.52-3.49-6.15-2.49-.57-5.6.75-6.15,3.49-.4,2-.81,4.01-1.49,5.94-.05.15-.46,1.1-.14.41.3-.64-.05.1-.11.22-.21.43-.43.85-.68,1.26-.16.26-.32.51-.49.76-.4.62.09.07.09-.1,0,.27-.98,1.11-1.15,1.28-3.26,3.38-6.87,6.48-10.43,9.53-1.99,1.71-1.88,5.34,0,7.07,2.12,1.95,4.94,1.82,7.07,0h0Z"/>
      <path class="cls-1" d="M166.97,593.29c-3.8-5.31-11.55-6.8-17.64-5.06-6.69,1.91-9.98,8.12-10.02,14.75s2.19,12.46,4.72,18.2c.61,1.38,1.25,2.75,1.91,4.12.72,1.5,1.38,2.97,2.62,4.12,2.65,2.46,7.22,2.3,10.62,2.06,6.99-.5,14.88-4.17,16.3-11.8.48-2.56-.71-5.52-3.49-6.15-2.46-.56-5.64.74-6.15,3.49-.03.17-.42,1.24-.36,1.36-.05-.11.56-1.04.07-.24-.09.15-.17.31-.26.46s-.51.8-.12.22-.06.04-.18.18-.25.26-.38.39c-.03.03-.86.85-.32.32.48-.47-.07.04-.23.15-.2.14-.41.27-.62.39-.33.19-.76.53-1.14.59,1.01-.17.43-.16.1-.07-.28.08-.56.18-.85.26-.57.16-1.15.25-1.73.38.92-.21.25-.02,0,0-.3.03-.59.05-.89.07-.6.04-1.19.05-1.79.05-.52,0-1.05-.02-1.57-.04-.3-.01-.6-.03-.89-.05s-1.24-.23-.16.04c-.41-.1-.8-.33.2.26l.6.35c.36.49.44.58.26.26-.14-.44-.44-.89-.65-1.31-.56-1.16-1.11-2.32-1.65-3.49-.22-.48-.44-.96-.65-1.45-.12-.28-.24-.55-.36-.83.08.19.34.84-.02-.06-.45-1.12-.88-2.24-1.26-3.38-.36-1.06-.68-2.14-.95-3.22-.13-.51-.24-1.01-.35-1.52-.06-.29-.11-.58-.17-.88-.02-.13-.19-1.33-.11-.66s-.02-.3-.04-.45c-.02-.22-.04-.45-.05-.67-.03-.49-.05-.98-.05-1.48s.04-.99.07-1.49c.01-.16.15-.72,0-.07-.18.77.07-.27.11-.43.02-.09.43-1.39.41-1.41.03.02-.43.86-.15.36.12-.21.21-.43.33-.64s.26-.4.39-.61c.3-.49-.2.32-.23.3-.01-.01.45-.46.51-.52.73-.76-.49.22.03-.03.21-.1.46-.24.65-.38.45-.32-.86.23.02-.02.56-.16,1.1-.29,1.66-.42.6-.14-.38.08-.37.05.01-.05,1.11-.06,1.17-.06.52,0,1.05.03,1.57.06.95.04-.01-.04-.17-.04.3,0,.63.1.93.16.55.11,1.08.27,1.61.43.13.04.68.29.09.02-.69-.32.24.16.38.23.93.45-.18-.17-.14-.16.23.01.99,1.21.16.04,1.52,2.12,4.43,3.35,6.84,1.79,2.11-1.36,3.42-4.57,1.79-6.84h0Z"/>
      <path class="cls-1" d="M176.23,592.1c-.48,6.21-1.04,12.42-1.7,18.62-.32,3.02-.66,6.03-1.03,9.04-.19,1.55-.38,3.09-.58,4.64-.1.81-.21,1.63-.32,2.44-.04.33-.09.65-.13.98.13-.99-.08.58-.09.62-.19,1.39-.24,2.58.5,3.85.61,1.04,1.8,2.03,2.99,2.3,2.35.54,5.77-.72,6.15-3.49,1.77-12.96,3.19-25.96,4.19-39,.2-2.61-2.44-5.11-5-5-2.88.13-4.79,2.2-5,5h0Z"/>
      <path class="cls-1" d="M181.03,595.47c3.26.47,6.51.95,9.77,1.42l4.64.68,2.44.36c.41.06.82.11,1.22.18l.33.05c.83.22.46.01-1.11-.64l-1.29-2.21c.29.74.06-.31.02-.61-.08-.67-.07.16-.12.4-.15.71-.29,1.42-.43,2.13-.29,1.5-.55,3-.79,4.51-.51,3.22-.94,6.45-1.26,9.69-.58,5.92-.78,11.86-.62,17.8.07,2.61,2.25,5.12,5,5s5.08-2.2,5-5c-.13-4.98-.02-9.96.36-14.92.19-2.4.44-4.8.74-7.19-.13,1.03.13-.88.15-1.06.07-.48.14-.95.22-1.43.2-1.27.42-2.54.65-3.8.49-2.66,1.52-5.52.7-8.19-.65-2.12-2.47-3.63-4.59-4.14-1.05-.25-2.19-.32-3.26-.48-5.05-.74-10.1-1.47-15.14-2.21-1.39-.2-2.59-.23-3.85.5-1.04.61-2.03,1.8-2.3,2.99-.54,2.37.72,5.75,3.49,6.15h0Z"/>
      <path class="cls-1" d="M207.7,594.63c-1.77,9.7-2.57,19.58-2.16,29.44.11,2.78-.23,6.71,1.99,8.75s5.58,1.8,8.52,1.91c4.96.18,9.93.36,14.89.54,2.62.1,5.12-2.37,5-5-.13-2.79-2.2-4.9-5-5-3.23-.12-6.45-.24-9.68-.35-1.57-.06-3.14-.12-4.71-.17-.83-.03-1.65-.06-2.48-.09-.33-.01-.66-.02-.99-.04-.25,0-.5-.02-.74-.03-.76-.05-.34.08,1.26.37l1.79,1.79c.14.21.4,2.54.38,1.2,0-.32-.05-.65-.07-.97-.05-.73-.09-1.46-.12-2.19-.06-1.3-.1-2.59-.12-3.89-.04-2.76,0-5.52.14-8.27s.35-5.34.65-8c.07-.65.15-1.29.23-1.93-.07.54-.04.25.02-.12.05-.32.09-.64.14-.96.21-1.45.46-2.89.72-4.32.47-2.56-.7-5.51-3.49-6.15-2.45-.56-5.65.74-6.15,3.49h0Z"/>
      <path class="cls-1" d="M211.33,618c3.09-1.05,6.27-1.8,9.51-2.24l-1.33.18c2.23-.29,4.47-.43,6.72-.42,2.62,0,5.12-2.31,5-5s-2.2-4.99-5-5c-5.94-.02-11.94.92-17.57,2.83-2.47.84-4.36,3.47-3.49,6.15.79,2.45,3.5,4.4,6.15,3.49h0Z"/>
      <path class="cls-1" d="M209.47,600.58c1.12-.38,2.25-.7,3.41-.93.58-.12,1.16-.21,1.74-.3-.48.07-.52.06-.01.01.29-.03.59-.06.88-.09,2.45-.21,4.92-.21,7.38-.19,5.19.06,10.32.11,15.44-.86,2.58-.49,4.28-3.73,3.49-6.15-.89-2.75-3.39-4.02-6.15-3.49-.29.06-.59.11-.88.16-.48.09-.48.08,0,.02-.59.08-1.18.14-1.78.19-1.19.1-2.39.15-3.59.17-2.48.05-4.96-.02-7.44-.04-5.08-.03-10.3.21-15.15,1.85-2.47.84-4.36,3.48-3.49,6.15.79,2.45,3.5,4.39,6.15,3.49h0Z"/>
      <path class="cls-1" d="M243.39,593.8c-4.19,11.54-6.54,23.7-7.12,35.96-.12,2.62,2.39,5.12,5,5,2.81-.13,4.87-2.2,5-5s.37-5.81.72-8.7c.05-.39.1-.78.15-1.17-.07.52-.05.34.01-.07.1-.7.21-1.4.32-2.1.24-1.48.51-2.95.81-4.42,1.16-5.72,2.76-11.35,4.75-16.83.89-2.46-1-5.58-3.49-6.15-2.82-.64-5.19.86-6.15,3.49h0Z"/>
      <path class="cls-1" d="M254.79,593.93c-.14.47-.39.87-.75,1.21.38-.36.26-.28-.33.23.78-.57-1,.35-.07.08-.85.09-.98.13-.38.13-.75-.12-.85-.11-.3.02l.33.12c-.65-.28-.73-.29-.24-.04.2.12.4.25.59.39l-.48-.38s.84.76.91.83c.2.21.4.5.61.68-.46-.62-.54-.71-.23-.28.12.17.23.34.34.51.16.26.32.52.46.79.07.14.68,1.31.27.51s.12.38.17.56c.09.29.18.59.25.89.1.4.17.81.25,1.21.19.96-.07-1.15-.02-.1.03.73.08,1.44.05,2.17-.01.31-.04.61-.06.92-.06.56-.05.47.04-.28-.04.23-.09.46-.15.69-.04.17-.09.34-.15.51-.12.35-.06.23.17-.38-.1.21-.22.41-.35.61.41-.51.5-.63.25-.37-1,.75.77-.32-.12.11-.06.03-.81.52-.87.46.69-.28.78-.32.27-.13-.21.08-.42.15-.63.21-.35.11-.71.21-1.06.31-.88.24-1.76.43-2.66.59-.26.04-.51.09-.77.12.62-.08.74-.1.36-.05-.45.03-.9.09-1.36.12-1.82.12-3.63.06-5.44-.15-1.19-.14-2.73.66-3.54,1.46-.87.87-1.52,2.29-1.46,3.54.13,2.97,2.21,4.68,5,5,3.92.45,7.94.14,11.77-.79,1.85-.45,3.8-1.06,5.43-2.06,2.22-1.36,3.74-3.33,4.6-5.78,1.17-3.34.94-7.53.02-10.91s-2.79-6.64-5.53-8.81c-2.56-2.03-5.4-3.22-8.71-2.66-2.94.5-5.26,2.71-6.13,5.51-.78,2.5.92,5.56,3.49,6.15,2.72.62,5.32-.82,6.15-3.49h0Z"/>
      <path class="cls-1" d="M271.89,593.22c-4.32,10.25-6.23,21.57-5.57,32.68.13,2.13,1.46,4.32,3.67,4.82s4.31-.41,5.65-2.3c7.57-10.66,15.13-21.32,22.7-31.99-3.05-1.28-6.09-2.57-9.14-3.85-2.4,11.71-3.27,23.71-2.4,35.64.19,2.6,2.16,5.13,5,5,2.55-.11,5.2-2.21,5-5-.41-5.65-.45-11.33-.1-16.98.17-2.75.44-5.49.79-8.22-.09.73,0-.02.05-.36s.09-.64.14-.96c.11-.72.23-1.44.35-2.16.24-1.44.52-2.87.81-4.3.5-2.46-.51-4.89-2.89-5.9s-4.78-.01-6.24,2.05c-7.57,10.66-15.13,21.32-22.7,31.99l9.32,2.52c-.15-2.59-.17-5.19-.04-7.78.07-1.3.17-2.59.31-3.88.04-.38.09-.76.13-1.14-.06.5-.06.42,0-.03.1-.68.21-1.36.33-2.04.91-5.21,2.43-10.28,4.48-15.15,1.02-2.42-1.09-5.6-3.49-6.15-2.93-.67-5.06.9-6.15,3.49h0Z"/>
      <path class="cls-1" d="M298.76,598.4c.06,5.12-.07,10.24-.41,15.34-.17,2.51-.38,5.02-.64,7.53-.14,1.29-.28,2.58-.45,3.87-.02.18-.28,2.09-.14,1.09-.09.64-.18,1.29-.28,1.93-.2,1.38-.23,2.6.5,3.85.61,1.04,1.8,2.03,2.99,2.3,2.37.54,5.74-.72,6.15-3.49,1.58-10.74,2.4-21.56,2.28-32.42-.03-2.61-2.28-5.12-5-5s-5.03,2.2-5,5h0Z"/>
      <path class="cls-1" d="M302.1,600.64l6.29,8.07c1.1,1.41,2.19,2.82,3.29,4.23,1.74,2.2,4.51,3.08,7.14,1.97,2.09-.88,3.12-2.8,4.21-4.66.86-1.48,1.73-2.97,2.59-4.45,1.77-3.04,3.54-6.08,5.31-9.11l-4.32,2.48-3.61-2.69.09.31c-.1-.51-.08-.66,0-.05.09.73.18,1.46.26,2.19.15,1.3.28,2.6.41,3.89.27,2.76.49,5.53.66,8.29.34,5.45.49,10.92.46,16.38-.01,2.62,2.31,5.12,5,5s4.99-2.2,5-5c.05-9.87-.49-19.74-1.65-29.54-.39-3.27-.68-6.83-4.17-8.31-2.51-1.06-5.24-.3-6.77,2-.67,1.02-1.24,2.13-1.85,3.18-1.24,2.12-2.47,4.24-3.71,6.36-.62,1.06-1.24,2.12-1.85,3.18-.33.57-.66,1.13-.99,1.7-.16.28-.33.57-.49.85-.83,1.23.14.74,2.93-1.47l2.52.68c.28.12.59.69.2.14-.23-.33-.5-.64-.75-.96l-1.2-1.54c-.9-1.15-1.8-2.31-2.69-3.46-1.75-2.24-3.49-4.48-5.24-6.72-1.62-2.07-5.4-1.82-7.07,0-2.02,2.2-1.72,4.86,0,7.07h0Z"/>
      <path class="cls-1" d="M339.91,598.85c-1.45,8.39-2.23,16.89-2.12,25.4.02,1.41.12,2.76.77,4.04.73,1.44,2.2,2.4,3.71,2.83,1.93.55,3.94.9,5.9,1.34,4.17.94,8.33,1.89,12.5,2.83,2.55.58,5.53-.78,6.15-3.49.58-2.54-.76-5.53-3.49-6.15-3.21-.73-6.41-1.45-9.62-2.18-1.52-.34-3.04-.69-4.57-1.03s-3.18-.52-4.6-1.09l2.21,1.29c.78,2.81,1.13,3.51,1.05,2.11,0-.24,0-.48,0-.73,0-.56,0-1.13,0-1.69,0-.97.02-1.93.04-2.9.05-2.09.15-4.19.31-6.28s.36-4.18.61-6.26c.02-.2.21-1.59.07-.59.07-.48.13-.96.21-1.44.17-1.12.35-2.23.54-3.34.44-2.57-.68-5.51-3.49-6.15-2.43-.55-5.67.74-6.15,3.49h0Z"/>
      <path class="cls-1" d="M346.33,619.59c4.49-1.11,9.02-2.02,13.59-2.74,1.16-.18,2.42-1.33,2.99-2.3.63-1.07.89-2.65.5-3.85s-1.14-2.38-2.3-2.99l-1.19-.5c-.89-.24-1.77-.24-2.66,0-4.57.72-9.1,1.63-13.59,2.74-2.54.63-4.31,3.63-3.49,6.15s3.43,4.16,6.15,3.49h0Z"/>
      <path class="cls-1" d="M343.18,602.2c3.14-.07,5.92-1.35,8.6-2.87,2.32-1.32,4.65-2.63,6.97-3.95s3.24-4.59,1.79-6.84-4.41-3.17-6.84-1.79c-1.69.96-3.37,1.91-5.06,2.87-1.55.88-3.09,1.83-4.73,2.53l1.19-.5c-.77.31-1.54.55-2.36.67l1.33-.18c-.3.04-.59.06-.9.06-1.3.03-2.61.54-3.54,1.46-.87.87-1.52,2.29-1.46,3.54.12,2.66,2.2,5.06,5,5h0Z"/>
      <path class="cls-1" d="M374.46,590.06c.17,1.77.14,3.54-.02,5.31-.05.48-.1.97-.16,1.45.12-1.01-.08.54-.09.6-.12.8-.25,1.61-.37,2.41-.6,3.92-1.04,7.85-1.25,11.81-.38,7.29-.12,14.59.15,21.88.1,2.61,2.23,5.12,5,5s5.1-2.2,5-5c-.27-7.29-.53-14.59-.15-21.88.09-1.8.23-3.59.41-5.38.09-.9.19-1.79.31-2.68-.12.88.07-.41.1-.61.06-.4.12-.8.19-1.2.6-3.87,1.27-7.78.89-11.71-.25-2.6-2.12-5.13-5-5-2.49.11-5.27,2.21-5,5h0Z"/>
      <path class="cls-1" d="M380.78,616.28c4.61.35,9.24.25,13.83-.3,1.37-.17,2.52-.45,3.54-1.46.87-.87,1.52-2.29,1.46-3.54s-.48-2.63-1.46-3.54c-.91-.83-2.25-1.62-3.54-1.46-4.59.55-9.22.65-13.83.3-1.22-.09-2.7.62-3.54,1.46s-1.52,2.29-1.46,3.54.48,2.63,1.46,3.54,2.15,1.36,3.54,1.46h0Z"/>
      <path class="cls-1" d="M395.33,590.05c-.91,13.86-4.36,27.73-.72,41.5.67,2.53,3.6,4.32,6.15,3.49s4.21-3.44,3.49-6.15c-.42-1.6-.74-3.22-1-4.86-.05-.37-.05-.31.02.17l-.05-.47c-.04-.47-.1-.93-.13-1.4-.06-.78-.11-1.56-.14-2.34-.13-3.31.03-6.63.31-9.93.57-6.68,1.63-13.31,2.07-20,.17-2.62-2.42-5.12-5-5-2.86.13-4.82,2.2-5,5h0Z"/>
      <path class="cls-1" d="M410.55,596.13c4.6-.24,9.22-.14,13.8.32.56.06,1.12.12,1.69.19.32.04.64.08.96.12-.45-.06-.49-.06-.13-.01,1.38.23,2.78.41,4.18.58,2.62.32,5.1.28,7.71-.22s4.28-3.72,3.49-6.15c-.89-2.74-3.39-4.03-6.15-3.49-.6.11-.62.12-.07.04-.31.03-.63.05-.94.06-.47.02-.95.01-1.42,0-.56-.02-1.11-.07-1.66-.12-.24-.02-.48-.05-.71-.08.54.08.5.07-.1-.01-2.43-.36-4.87-.71-7.31-.94-4.43-.42-8.88-.5-13.32-.28-2.61.13-5.13,2.2-5,5,.12,2.59,2.2,5.14,5,5h0Z"/>
      <path class="cls-1" d="M418.83,595.13c-.83,12.16-1.95,24.29-3.35,36.39-.3,2.61,2.52,5.11,5,5,2.97-.13,4.68-2.21,5-5,1.4-12.1,2.52-24.24,3.35-36.39.18-2.61-2.43-5.12-5-5-2.86.13-4.81,2.2-5,5h0Z"/>
    </g>
  </g>
</svg>