<?xml version="1.0" encoding="UTF-8"?>
<svg id="Layer_2" xmlns="http://www.w3.org/2000/svg" viewBox="0 0 5313.74 797.85">
  <g id="Layer_1-2" data-name="Layer_1">
    <g>
      <path d="M4060.21,180.87v44.14l7.92-7.92c139.2-98.46,238.78-21.5,284.05,35.08,45.27,56.58,70.16,253.5-38.48,351.95-108.64,98.46-246.71-5.66-246.71-5.66v192.38h-144.85V179.74l138.06,1.13ZM4156.46,271.69s-95.75-19.45-99.15,146.48c-2.9,141.97,98.21,130.24,127.48,123.89,6.05-1.31,11.72-3.74,16.83-7.24,18.58-12.73,59.07-51.13,53.81-141.76-6.79-117.13-85.44-119.46-85.44-119.46l-13.52-1.91Z"/>
      <path d="M3868.48,289.74c22.63,32.82,61.11,192.38-13.58,284.05-74.69,91.67-226.34,78.53-226.34,78.53,0,0-190.12,1.82-201.44-238.54-11.32-240.35,231.99-238.54,231.99-238.54,149.38,3.21,186.73,81.67,209.36,114.49ZM3561.89,398.02s-17.15,160.77,100.86,147.83c99.9-10.96,101.05-97.77,99.05-124.16-.4-5.23-.5-10.46-.31-15.7.99-27.6-2.32-116.54-85.39-124.18-98.46-9.05-113.04,105.13-113.04,105.13l-1.16,11.08Z"/>
      <path d="M2787.82,173.47c164.7-7.05,197.78,87.7,197.78,87.7l3.29,329.33c1.2,22.35,27.26,59.4,27.26,59.4l-151.93-1.7v-36.78l-3.72,4.98c-3.05,4.09-6.96,7.51-11.54,9.78-68.5,33.94-153.34,35.94-194.39,21.17-42.44-15.28-95.03-39.03-95.06-129.01-.03-101.87,62.79-149.9,174.9-153.17,116.28-3.4,111.19-39.04,111.19-39.04,0,0,24.61-63.66-63.66-61.11-78.07,2.25-71.35,72.34-71.35,72.34h-142.59c18.02-109.47,67.84-157.38,219.81-163.89ZM2693.92,521c1.52,46.97,90.67,30.34,113.75,25.24,4.7-1.04,9.02-3.19,12.53-6.49,10.57-9.93,28.89-36.6,26.26-101.08h-20.56s-134.35,8.93-131.98,82.33Z"/>
      <path d="M0,503.31v144.29s234.26,50.93,251.23-193.52c16.98-244.44,16.98-314.04,16.98-314.04h164.66v504.16l154.47-1.7V16.12H125.62l-2.55,326.49s-1.41,215.02-123.07,160.7Z"/>
      <path d="M853.98,170.18c164.7-7.05,197.78,87.7,197.78,87.7l3.29,329.33c1.2,22.35,27.26,59.4,27.26,59.4l-151.93-1.7v-36.78l-3.72,4.98c-3.05,4.09-6.96,7.51-11.54,9.78-68.5,33.94-153.34,35.94-194.39,21.17-42.44-15.28-93.36-39.04-95.06-129.01-1.7-89.97,67.77-144.69,179.87-147.97,116.28-3.4,112.95-47.25,112.95-47.25,0,0,17.82-51.77-70.45-49.23-78.07,2.25-71.3,63.45-71.3,63.45h-142.59c21.23-120.74,67.84-157.38,219.81-163.89ZM760.07,517.7c1.7,73.42,123.07,31.4,123.07,31.4,0,0,36.07,2.55,38.62-113.73h-29.71s-133.68,8.91-131.98,82.33Z"/>
      <path d="M1427.4.64l123.42-.64s1.13,131.42-141.09,146.22c-133.09,13.85-146.41-14-208.79,106.94,0,0,43.62-75.92,148.45-70.82,100.14,4.87,118.06,31.36,174.08,100.95,56.02,69.6,24.61,223.22,24.61,223.22,0,0-38.19,144.29-221.95,149.38-183.76,5.09-221.53-199.03-221.53-199.03,0,0-32.25-154.9,29.28-291.97,61.53-137.07,174.33-134.2,174.33-134.2,0,0,117.48-2.69,119.18-30.06ZM1252.29,342s-36.78,94.6,2.83,156.22c39.61,61.63,87.14,49.74,87.14,49.74,0,0,70.86-10.56,78.09-106.66,5.66-75.26-13.01-104.4-32.25-126.75-16.55-19.23-110.9-28.57-135.8,27.44Z"/>
      <path d="M2023.59,281.79c26.59,41.87,57.09,200.82-17.6,292.48-74.69,91.67-226.34,78.53-226.34,78.53,0,0-190.12,1.82-201.44-238.54-9.12-193.59,140.38-237.49,205.79-242.6,14.16-1.11,28.33-2.33,42.51-1.4,134.44,8.84,176.62,79.32,197.08,111.51ZM1712.98,398.51s-17.15,160.77,100.86,147.83c99.9-10.96,101.05-97.77,99.05-124.16-.4-5.23-.5-10.46-.31-15.7.99-27.6-2.32-116.54-85.39-124.18-98.46-9.05-113.04,105.13-113.04,105.13l-1.16,11.08Z"/>
      <path d="M2217.81,184.11l1.15,43.85,3.94-5.38c100.14-125.64,251.64-24,291.55,38.55,38.98,61.09,66.64,251.54-42,349.99-108.64,98.46-246.71-5.66-246.71-5.66v192.38h-144.85l1.96-614.31,134.95.57ZM2315.21,278.7s-105.51-19.36-99.15,146.48c5.85,152.75,134.87,113.71,134.87,113.71,0,0,66.77-19.8,59.98-136.93-6.79-117.13-82.17-121.35-82.17-121.35l-13.52-1.91Z"/>
      <polygon points="2998.4 178.64 2998.4 292.84 3142.12 292.84 3142.12 644.79 3285.28 644.79 3285.28 293.97 3427.87 292.28 3427.87 178.64 2998.4 178.64"/>
      <polygon points="4416.39 187.88 4416.39 643.95 4570.3 643.95 4720.81 373.48 4720.81 643.95 4850.95 643.95 4856.61 187.88 4701.57 187.88 4577.86 396.75 4550.6 444.27 4552.19 187.88 4416.39 187.88"/>
      <path d="M4889.36,332.45c-.14-144.71,147.68-144.71,147.68-144.71h276.69l-1.7,457.9h-131.98v-162.96l-43.71,1.7-115.86,161.26-165.93-1.7,130.71-164.66s-95.79-23.22-95.91-146.83ZM5025.37,334.64c-.89,45.55,41.52,53.97,41.52,53.97h113.17v-105.53h-119.04s-35.01,18.88-35.65,51.56Z"/>
    </g>
  </g>
</svg>