<?xml version="1.0" encoding="UTF-8"?>
<svg id="Layer_2" xmlns="http://www.w3.org/2000/svg" viewBox="0 0 1638.82 1588.26">
  <defs>
    <style>
      .cls-1 {
        fill: #fff;
      }
    </style>
  </defs>
  <g id="Layer_2-2" data-name="Layer_2">
    <g id="Layer_1-2">
      <path class="cls-1" d="M819.41,1588.26c-110.42,0-217.58-20.94-318.49-62.23-97.54-39.91-185.15-97.06-260.4-169.86-75.35-72.9-134.53-157.83-175.9-252.43C21.74,1005.67,0,901.5,0,794.13s21.74-211.53,64.62-309.6c41.36-94.61,100.54-179.54,175.9-252.44,75.25-72.8,162.87-129.95,260.4-169.86C601.83,20.94,708.99,0,819.41,0s217.58,20.94,318.49,62.23c97.54,39.91,185.15,97.06,260.4,169.86,75.35,72.9,134.53,157.83,175.9,252.44,42.88,98.07,64.62,202.24,64.62,309.6s-21.74,211.54-64.62,309.61c-41.36,94.6-100.54,179.54-175.9,252.43-75.25,72.8-162.87,129.95-260.4,169.86-100.91,41.29-208.07,62.23-318.49,62.23ZM819.41,87c-403.85,0-732.41,317.22-732.41,707.13s328.56,707.13,732.41,707.13,732.41-317.22,732.41-707.13S1223.26,87,819.41,87Z"/>
      <g>
        <path class="cls-1" d="M859.1,692.83c-22.78-2.05-41.99,2.2-61.48,10.48-17.51,7.45-34.76,16.59-48.41,30.43-32.92,33.38-38.55,89.38-23.26,134.93,10.16,30.24,28.81,57.61,54.09,75.19,37.98,26.39,87.08,28.52,131.42,18.28,44.28-10.23,89.32-35.43,107.12-79.73,13.88-34.54,8.29-75.96-10.44-107.82s-49.32-54.58-82.55-67.35c-33.23-12.77-52.69-15.27-88.02-14.46"/>
        <path class="cls-1" d="M859.1,638.83c-11.31-.94-22.15-.08-33.38,1.43s-21.12,3.22-31.4,6.73c-19.69,6.73-40.25,15.55-57.41,27.59-19.86,13.93-36.64,30.08-49.03,51.16-5.86,9.97-10.33,20.92-14.24,31.76-2.48,6.87-4.33,13.97-5.61,21.16-6.94,38.88-4.9,79.51,10.36,116.3,4.64,11.19,9.25,22.31,15.44,32.74,6.22,10.48,13.78,20.2,21.49,29.61,12.55,15.32,28.71,28.54,45.77,38.47,35.81,20.85,79.48,28.99,120.55,25.2,39.42-3.64,78.37-13.56,112.58-34.16,36.82-22.17,65.12-55.12,78.65-96.13,3.96-12,5.48-24.74,6.8-37.23.85-8.09.85-16.25.09-24.34-1.19-12.59-2.84-25.38-6.27-37.6-3.3-11.77-8.19-23.2-13.43-34.21-3.54-7.43-7.79-14.51-12.62-21.17-7.1-9.79-14.56-19.53-23.09-28.15-13.82-13.96-30.11-26.29-47.22-35.95-34.86-19.69-74.49-31.14-114.42-33.09-8.37-.41-16.76-.35-25.13-.17-14.03.3-28.18,5.82-38.18,15.82-9.37,9.37-16.42,24.73-15.82,38.18s5.21,28.45,15.82,38.18c10.43,9.58,23.67,16.13,38.18,15.82s27.56-.18,41.25,1.62l-14.36-1.93c18.08,2.53,35.62,8.1,52.44,15.13l-12.9-5.44c13.74,5.88,26.69,13.29,38.6,22.33-3.64-2.81-7.29-5.63-10.93-8.44,10.69,8.27,20.31,17.72,28.61,28.4-2.81-3.64-5.63-7.29-8.44-10.93,7.1,9.36,13.01,19.42,17.6,30.24-1.81-4.3-3.63-8.6-5.44-12.9,4.35,10.61,7.37,21.61,9.02,32.95-.64-4.79-1.29-9.57-1.93-14.36,1.51,11.33,1.6,22.7.08,34.03l1.93-14.36c-1.34,9.06-3.69,17.85-7.17,26.33,1.81-4.3,3.63-8.6,5.44-12.9-3.68,8.61-8.37,16.63-14.03,24.08,2.81-3.64,5.63-7.29,8.44-10.93-6.57,8.42-14.16,15.85-22.56,22.43,3.64-2.81,7.29-5.63,10.93-8.44-11.27,8.64-23.65,15.57-36.71,21.13,4.3-1.81,8.6-3.63,12.9-5.44-17.33,7.22-35.53,11.93-54.12,14.51,4.79-.64,9.57-1.29,14.36-1.93-16.76,2.2-33.66,2.53-50.44.38l14.36,1.93c-12.83-1.77-25.33-4.99-37.3-9.96,4.3,1.81,8.6,3.63,12.9,5.44-9.91-4.26-19.19-9.62-27.77-16.17l10.93,8.44c-9-7.04-16.97-15.16-24.01-24.16,2.81,3.64,5.63,7.29,8.44,10.93-8.37-10.92-15.19-22.82-20.6-35.46,1.81,4.3,3.63,8.6,5.44,12.9-5.47-13.13-9.25-26.75-11.21-40.84.64,4.79,1.29,9.57,1.93,14.36-1.73-13.36-1.84-26.81-.17-40.18l-1.93,14.36c1.57-11.62,4.48-22.95,8.99-33.78-1.81,4.3-3.63,8.6-5.44,12.9,3.6-8.35,8.09-16.2,13.61-23.44l-8.44,10.93c5.19-6.61,11.12-12.43,17.71-17.64-3.64,2.81-7.29,5.63-10.93,8.44,11.68-8.95,24.73-15.63,38.22-21.4l-12.9,5.44c11.36-4.77,23.06-8.33,35.28-10.02-4.79.64-9.57,1.29-14.36,1.93,8.73-1.08,17.44-1.19,26.2-.46,13.11,1.09,29.17-6.8,38.18-15.82,9.37-9.37,16.42-24.73,15.82-38.18-.63-13.97-5.21-28.45-15.82-38.18l-10.93-8.44c-8.42-4.88-17.51-7.34-27.25-7.37h0Z"/>
      </g>
      <path class="cls-1" d="M816.29,1057.85c-2.25,79.95-4.49,159.9-6.74,239.85-.64,22.65-1.27,45.31-1.91,67.96-.38,13.6,6.29,28.66,15.82,38.18,9.37,9.37,24.73,16.42,38.18,15.82s28.45-5.21,38.18-15.82c9.85-10.73,15.4-23.42,15.82-38.18,2.25-79.95,4.49-159.9,6.74-239.85.64-22.65,1.27-45.31,1.91-67.96.38-13.6-6.29-28.66-15.82-38.18-9.37-9.37-24.73-16.42-38.18-15.82-13.97.63-28.45,5.21-38.18,15.82-9.85,10.73-15.4,23.42-15.82,38.18h0Z"/>
      <path class="cls-1" d="M915.48,1035.03c52.81,88.84,111.81,173.69,174.86,255.54,20.76,26.95,41.74,53.71,63.05,80.23,8.11,10.1,25.84,15.82,38.18,15.82,13.24,0,29.07-5.88,38.18-15.82,9.45-10.29,16.46-23.8,15.82-38.18-.64-4.79-1.29-9.57-1.93-14.36-2.57-9.15-7.19-17.09-13.89-23.83-17.29-21.52-34.41-43.17-51.29-65,2.81,3.64,5.63,7.29,8.44,10.93-49.78-64.45-97.29-130.66-141.01-199.38-12.7-19.96-25.08-40.12-37.17-60.46-6.97-11.73-19.08-21.18-32.27-24.82-12.93-3.56-30.14-1.95-41.61,5.44-11.53,7.43-21.68,18.5-24.82,32.27-3.22,14.12-2.11,28.9,5.44,41.61h.02Z"/>
      <path class="cls-1" d="M974.02,910.57c127.13-5.92,254.28-11.43,381.3-19.23,36.22-2.22,72.43-4.63,108.62-7.27,14.46-1.05,27.68-5.31,38.18-15.82,9.37-9.37,16.42-24.73,15.82-38.18-.63-13.97-5.21-28.45-15.82-38.18-10.12-9.29-23.98-16.85-38.18-15.82-126.93,9.26-254.05,15.57-381.17,21.47-36.25,1.68-72.5,3.34-108.75,5.03-14.24.66-27.94,5.57-38.18,15.82-9.37,9.37-16.42,24.73-15.82,38.18s5.21,28.45,15.82,38.18c10.28,9.44,23.81,16.49,38.18,15.82h0Z"/>
      <path class="cls-1" d="M766.82,698.09c-80.16-86.44-168.89-164.32-263.91-234.05-26.07-19.13-52.66-37.53-79.72-55.22-11.38-7.44-28.77-8.98-41.61-5.44s-26.1,13.13-32.27,24.82c-6.62,12.53-9.94,27.71-5.44,41.61,4.46,13.77,12.61,24.29,24.82,32.27,39.59,25.88,78.15,53.32,115.59,82.25l-10.93-8.44c60.61,46.92,118.22,97.67,172.32,151.96,15.21,15.27,30.14,30.82,44.8,46.63,9.2,9.92,24.87,15.82,38.18,15.82s29.07-5.88,38.18-15.82c9.45-10.29,16.46-23.8,15.82-38.18-.66-14.63-5.75-27.33-15.82-38.18h0v-.03Z"/>
      <path class="cls-1" d="M1020.64,713.22c41.3-95.4,80.73-191.61,117.91-288.69,10.13-26.45,20.09-52.96,29.9-79.53,4.61-12.49,1.06-30.5-5.44-41.61s-19.4-21.88-32.27-24.82c-13.82-3.15-29.34-2.47-41.61,5.44-3.64,2.81-7.29,5.63-10.93,8.44-6.69,6.74-11.32,14.68-13.89,23.83-28.63,77.57-58.63,154.63-90.01,231.13-8.89,21.68-17.9,43.32-27.01,64.92,1.81-4.3,3.63-8.6,5.44-12.9-8.36,19.79-16.8,39.55-25.34,59.26-3.95,6.2-6.08,12.89-6.41,20.08-1.61,7.18-1.29,14.36.96,21.53,3.45,12.53,13.13,26.1,24.82,32.27,12.53,6.62,27.71,9.94,41.61,5.44,12.45-4.03,26.83-12.25,32.27-24.82h0v.03Z"/>
      <path class="cls-1" d="M674.2,916.13c-61.37,49.72-121.89,100.47-181.52,152.26-16.93,14.71-33.79,29.5-50.58,44.36-9.98,8.84-15.82,25.19-15.82,38.18s5.88,29.07,15.82,38.18c10.29,9.45,23.8,16.46,38.18,15.82s27.03-5.94,38.18-15.82c59.13-52.36,119.14-103.72,180.03-154.03,17.29-14.28,34.65-28.48,52.07-42.6,10.09-8.18,15.82-25.78,15.82-38.18,0-13.24-5.88-29.07-15.82-38.18-10.29-9.45-23.8-16.46-38.18-15.82l-14.36,1.93c-9.15,2.57-17.09,7.19-23.83,13.89h.01Z"/>
      <path class="cls-1" d="M898.63,804.64c-78.84-17.52-159.39-27.05-239.81-33.68-76.56-6.32-153.32-9.89-229.91-15.82-43.34-3.36-86.63-7.5-129.72-13.27,4.79.64,9.57,1.29,14.36,1.93-22.79-3.08-45.52-6.62-68.15-10.75-14.55-2.65-28.45-2.26-41.61,5.44-11.2,6.55-21.88,19.4-24.82,32.27-3.15,13.82-2.47,29.34,5.44,41.61,7.24,11.22,18.62,22.33,32.27,24.82,73.92,13.48,148.82,21.24,223.71,26.82,70.55,5.26,141.22,8.73,211.74,14.4,39.78,3.2,79.51,7.12,119.06,12.43l-14.36-1.93c37.94,5.13,75.7,11.56,113.08,19.87,14.1,3.13,28.92,1.98,41.61-5.44,11.2-6.55,21.88-19.4,24.82-32.27,3.15-13.82,2.47-29.34-5.44-41.61-7.41-11.49-18.51-21.76-32.27-24.82h0Z"/>
      <path class="cls-1" d="M732.86,968.78c-27.58,41.21-55.17,82.42-82.75,123.64-7.51,11.23-8.94,28.91-5.44,41.61,3.45,12.53,13.13,26.1,24.82,32.27,12.53,6.62,27.71,9.94,41.61,5.44,13.85-4.48,24.13-12.65,32.27-24.82,27.58-41.21,55.17-82.42,82.75-123.64,7.51-11.23,8.94-28.91,5.44-41.61-3.45-12.53-13.13-26.1-24.82-32.27-12.53-6.62-27.71-9.94-41.61-5.44-13.85,4.48-24.13,12.65-32.27,24.82h0Z"/>
      <path class="cls-1" d="M1000.29,914.39c42.03-52.79,85.6-104.34,130.7-154.53,45.3-50.42,92.11-99.49,140.35-147.1,27.1-26.74,54.65-53.02,82.62-78.84,9.93-9.16,15.82-24.9,15.82-38.18s-5.88-29.07-15.82-38.18-23.8-16.46-38.18-15.82-27.3,5.77-38.18,15.82c-49.58,45.76-97.82,92.98-144.59,141.62-46.99,48.86-92.51,99.12-136.48,150.71-24.7,28.97-48.89,58.37-72.61,88.15-5.27,4.89-8.99,10.68-11.17,17.38-3.38,6.44-4.93,13.37-4.65,20.81,0,13.24,5.88,29.07,15.82,38.18s23.8,16.46,38.18,15.82c13.36-.6,29.46-4.86,38.18-15.82h0v-.02Z"/>
      <path class="cls-1" d="M908.92,788.29c-16.94-75.34-31.34-151.24-43.1-227.55-3.33-21.57-6.44-43.18-9.35-64.81.64,4.79,1.29,9.57,1.93,14.36-9.88-73.63-17.36-147.56-22.41-221.68-.98-14.42-5.36-27.72-15.82-38.18-9.37-9.37-24.73-16.42-38.18-15.82s-28.45,5.21-38.18,15.82c-9.31,10.15-16.79,23.95-15.82,38.18,4.61,67.61,11.22,135.08,19.86,202.3,9.18,71.37,20.13,142.48,33.53,213.18,7.16,37.77,14.98,75.42,23.41,112.93,2.89,12.86,13.65,25.74,24.82,32.27s28.63,9.64,41.61,5.44c13.07-4.23,25.67-12.33,32.27-24.82,6.97-13.2,8.75-26.91,5.44-41.61h-.01Z"/>
    </g>
  </g>
</svg>