<?xml version="1.0" encoding="UTF-8"?>
<svg id="Layer_2" xmlns="http://www.w3.org/2000/svg" viewBox="0 0 1681.36 1629.42">
  <defs>
    <style>
      .cls-1 {
        fill: #231f20;
      }
    </style>
  </defs>
  <g id="Layer_2-2" data-name="Layer_2">
    <g id="Layer_1-2">
      <path class="cls-1" d="M840.68,1629.42c-113.3,0-223.24-21.48-326.77-63.85-100.07-40.95-189.96-99.58-267.17-174.27-77.31-74.79-138.02-161.92-180.45-258.98C22.3,1031.72,0,924.86,0,814.71s22.3-217.01,66.29-317.62c42.43-97.06,103.15-184.19,180.45-258.98,77.21-74.69,167.09-133.33,267.17-174.27C617.44,21.48,727.38,0,840.68,0s223.24,21.48,326.77,63.85c100.07,40.95,189.96,99.58,267.17,174.27,77.31,74.79,138.02,161.92,180.45,258.98,43.99,100.61,66.29,207.47,66.29,317.62s-22.3,217.01-66.29,317.62c-42.43,97.06-103.15,184.19-180.45,258.98-77.21,74.69-167.09,133.33-267.17,174.27-103.53,42.37-213.48,63.85-326.77,63.85ZM840.68,87c-415.58,0-753.68,326.45-753.68,727.71s338.1,727.71,753.68,727.71,753.68-326.45,753.68-727.71S1256.26,87,840.68,87Z"/>
      <path class="cls-1" d="M429.36,671.31c5.87-2.87,11.82-5.57,17.83-8.12l-12.9,5.44c36.27-15.17,74.74-24.7,113.65-30l-14.36,1.93c39.21-5.21,79.17-6.19,118.43-.94l-14.36-1.93c50.39,6.96,101.74,17.81,148.75,37.62-4.3-1.81-8.6-3.63-12.9-5.44,22.55,9.64,44,21.67,63.49,36.6-3.64-2.81-7.29-5.63-10.93-8.44,14.66,11.38,27.98,24.29,39.41,38.92-2.81-3.64-5.63-7.29-8.44-10.93,10.5,13.66,19.07,28.54,25.82,44.38-1.81-4.3-3.63-8.6-5.44-12.9,8.72,20.91,14.11,42.93,17.15,65.35-.64-4.79-1.29-9.57-1.93-14.36,5.98,45.85,1.71,91.34-3.08,137.05-2.19,20.88-2.47,41.9-3.64,62.85-.7,12.51-1.7,25-3.36,37.41.64-4.79,1.29-9.57,1.93-14.36-3.25,23.92-9.16,47.36-18.55,69.63,1.81-4.3,3.63-8.6,5.44-12.9-9.1,21.35-21.16,41.23-35.29,59.61l8.44-10.93c-22.14,28.56-48.84,53.22-77.34,75.31l10.93-8.44c-16.87,13-34.38,25.14-52.33,36.58-15.82,10.08-31.89,20.98-49.18,28.4l12.9-5.44c-16.96,7.14-35.15,10.94-53.32,13.44l14.36-1.93c-48.75,6.55-98.66,4.24-147.46-.47-14.57-1.41-29.11-3.11-43.62-5.06l14.36,1.93c-44.83-6.06-89.75-13.97-133.39-26.08-13.49-3.74-29.54-1.62-41.61,5.44-11.2,6.55-21.88,19.4-24.82,32.27-3.15,13.82-2.47,29.34,5.44,41.61,7.64,11.85,18.43,20.98,32.27,24.82,49.63,13.77,100.72,21.84,151.71,28.53,54.25,7.13,109.65,11.55,164.34,7.38,26.63-2.03,54.12-5.2,79.59-13.67,32.02-10.65,60.73-29.47,88.56-48.14,54.34-36.44,104.19-78.67,141.87-132.53,23.97-34.26,40.94-74.55,48.47-115.71,6.49-35.44,7.56-70.97,9.55-106.81,1.19-21.43,4.32-42.66,6.03-64.05,3.08-38.66,1.91-76.59-3.81-114.96-2.46-16.49-6.27-32.81-11.84-48.54-6.9-19.48-15.37-38.88-26.66-56.27-22.69-34.94-53.14-63.27-88.3-85.42-33.53-21.12-71.59-35.82-109.71-46.23-39.34-10.74-80.29-18.38-120.84-22.58-33.11-3.43-66.67-2.59-99.7,1.36-38.12,4.56-75.78,11.43-112.14,24-18.4,6.36-36.5,13.88-53.99,22.44-11.64,5.69-21.48,20.15-24.82,32.27-3.56,12.93-1.95,30.14,5.44,41.61,7.43,11.53,18.5,21.68,32.27,24.82l14.36,1.93c9.75-.03,18.83-2.49,27.25-7.37h0l.02.02Z"/>
      <path class="cls-1" d="M402.11,678.68c53.67-3.91,107.61-2.28,160.95,4.82l-14.36-1.93c43.83,5.94,88.18,14.49,129.17,31.58l-12.9-5.44c18.75,7.95,36.63,17.77,52.8,30.21l-10.93-8.44c12.21,9.54,23.26,20.39,32.82,32.6-2.81-3.64-5.63-7.29-8.44-10.93,8.11,10.55,14.95,21.92,20.19,34.15-1.81-4.3-3.63-8.6-5.44-12.9,4.53,10.88,7.62,22.13,9.27,33.8l-1.93-14.36c2.02,15.86,1.39,31.76-.72,47.57.64-4.79,1.29-9.57,1.93-14.36-5.94,41.93-18.99,83.87-35.41,122.82,1.81-4.3,3.63-8.6,5.44-12.9-12.92,30.32-29.08,59.05-49.14,85.24,2.81-3.64,5.63-7.29,8.44-10.93-22.04,28.51-48,53.66-76.45,75.73,3.64-2.81,7.29-5.63,10.93-8.44-40.93,31.55-86.43,56.41-133.93,76.55l12.9-5.44c-71.33,30.05-146.36,49.67-221.11,69.11-13.03,3.39-25.51,13.26-32.27,24.82s-9.64,28.63-5.44,41.61c4.23,13.07,12.33,25.67,24.82,32.27s27.18,9.2,41.61,5.44c88.46-23.01,176.53-47.1,259.61-85.93,34.33-16.05,67.4-34.98,97.99-57.39,33.68-24.67,65.36-51.88,91.74-84.39,14.79-18.22,28.74-37.09,40.53-57.4,12.53-21.57,22.6-44.38,31.89-67.5,17.49-43.56,29.96-89.82,34.86-136.53,4.92-46.91-7.55-96.13-36.1-133.94-7.77-10.28-15.59-20.38-24.74-29.45-9.52-9.43-20.14-17.57-30.84-25.61-19.34-14.53-41-24.55-63.24-33.77-39.26-16.28-81.45-24.82-123.39-30.78-49.16-6.99-98.41-10.83-148.09-9.28-11.01.34-22.01.94-32.99,1.74-14.46,1.05-27.68,5.31-38.18,15.82-9.37,9.37-16.42,24.73-15.82,38.18.63,13.97,5.21,28.45,15.82,38.18,10.12,9.29,23.98,16.85,38.18,15.82h0l-.03-.02Z"/>
      <path class="cls-1" d="M413.54,1055.58c28.25-58.87,50.27-120.63,63.68-184.57h-104.14c23.37,65.28,59.81,124.84,108.87,174.05,21.81-28.27,43.63-56.54,65.44-84.81-65.86-30.28-133.37-57.12-202.31-79.53-18.69-6.07-37.49-11.82-56.37-17.27-4.79,35.36-9.57,70.71-14.36,106.07,44.51-2.03,89.02-4.06,133.53-6.09,42.11-1.92,84.43-2.98,126.3-8.19,27.91-3.47,55.61-7.71,82.67-15.56-13.87-32.9-27.74-65.8-41.61-98.7-65.02,46.73-128.57,95.6-190.42,146.44-16.8,13.81-33.47,27.78-50.01,41.9-10.03,8.56-15.82,25.44-15.82,38.18s5.88,29.07,15.82,38.18,23.8,16.46,38.18,15.82l14.36-1.93c9.15-2.57,17.09-7.19,23.83-13.89,43.31-36.96,87.51-72.86,132.56-107.68-3.64,2.81-7.29,5.63-10.93,8.44,31.9-24.63,64.22-48.7,96.95-72.22,11.18-8.03,21.6-18.17,24.82-32.27,2.75-12.08,2.12-23.7-2.72-35.16-4.38-10.37-11.86-20.41-22.09-25.82-12.76-6.74-27.43-9.56-41.61-5.44-20.54,5.96-41.52,10.03-62.7,12.91,4.79-.64,9.57-1.29,14.36-1.93-33.18,4.39-66.62,5.93-100.03,7.46-35.21,1.61-70.42,3.21-105.63,4.82-19.93.91-39.86,1.82-59.79,2.73-13.61.62-28.66,5.44-38.18,15.82-8.19,8.92-13.23,18.95-14.85,31.01s-.08,24.38,6.41,34.43c7.68,11.92,18.42,20.82,32.27,24.82,66.41,19.15,131.64,42.23,195.32,69.09l-12.9-5.44c16.93,7.16,33.75,14.58,50.46,22.26,6.2,3.95,12.89,6.08,20.08,6.41,7.18,1.61,14.36,1.29,21.53-.96,11.38-3.68,20.7-9.84,28.05-19.35,16.28-21.07,14.92-51.7-4.22-70.9-11.94-11.98-23.12-24.67-33.52-38.01,2.81,3.64,5.63,7.29,8.44,10.93-21.38-27.69-39.16-57.97-52.88-90.16,1.81,4.3,3.63,8.6,5.44,12.9-3.06-7.27-5.93-14.62-8.59-22.05-4.07-11.37-9.65-20.55-19.35-28.05-9.11-7.04-20.89-12.12-32.72-11.59-9.59.43-18.77,2.89-27.25,7.37-10.98,5.8-22.25,20.03-24.82,32.27-9.9,47.22-24.31,93.39-42.99,137.87,1.81-4.3,3.63-8.6,5.44-12.9-4.82,11.39-9.9,22.66-15.25,33.8-6.38,13.29-9.48,26.96-5.44,41.61,3.45,12.53,13.13,26.1,24.82,32.27,12.53,6.62,27.71,9.94,41.61,5.44,12.76-4.13,26.25-12.27,32.27-24.82h-.01Z"/>
      <path class="cls-1" d="M1070.11,617.89c10.03-34.02,21.9-67.46,35.67-100.14-1.81,4.3-3.63,8.6-5.44,12.9,22.11-52.2,49.01-102.34,81.13-149.08h-93.25c30.98,73.19,61.96,146.37,92.95,219.56,28.27-21.81,56.54-43.63,84.81-65.44-76.02-70.15-157.06-135.15-242.28-193.8-22.9-15.76-46.15-31.02-69.7-45.8-13.87,32.9-27.74,65.8-41.61,98.7,111.16,25.76,222.61,50.9,336.35,62.26,30.36,3.03,60.84,4.93,91.35,5.46-9.08-33.54-18.17-67.08-27.25-100.63-89.11,52.56-175.05,110.44-257.48,172.96-26.9,20.41-53.54,41.17-79.8,62.4-10.09,8.16-15.82,25.8-15.82,38.18,0,13.24,5.88,29.07,15.82,38.18s23.8,16.46,38.18,15.82c4.79-.64,9.57-1.29,14.36-1.93,9.15-2.57,17.09-7.19,23.83-13.89,16.29-13.17,32.72-26.16,49.29-38.97l-10.93,8.44c69.1-53.35,140.67-103.5,214.6-149.94,20.64-12.96,41.46-25.63,62.45-38.01,10.15-5.98,17.56-15.08,22.09-25.82,4.53-10.73,6.41-23.77,2.72-35.16-7.44-22.98-27.49-39.22-52.07-39.64-46.14-.8-92.13-4.8-137.85-10.93,4.79.64,9.57,1.29,14.36,1.93-72.35-9.8-143.85-24.8-215.01-40.94-20.17-4.58-40.33-9.24-60.48-13.91-13.39-3.1-29.68-2.25-41.61,5.44-10.03,6.47-17.44,14.78-22.09,25.82-10.57,25.05-.9,53.01,22.09,67.43,54.63,34.26,107.52,71.25,158.58,110.64l-10.93-8.44c49.24,38.05,96.74,78.31,142.47,120.51,9.98,9.21,24.18,16.44,38.18,15.82,12.19-.55,23.01-4.1,32.72-11.59,8.92-6.89,16.78-16.74,19.35-28.05l1.93-14.36c-.03-9.75-2.49-18.83-7.37-27.25-30.98-73.19-61.96-146.37-92.95-219.56-4.8-8.11-11.26-14.57-19.37-19.37-8.42-4.88-17.51-7.34-27.25-7.37-20.12,0-35.62,10.72-46.63,26.75-42.89,62.41-76.21,130.95-102.35,201.92-7.31,19.84-13.91,39.92-19.89,60.2-3.92,13.29-1.51,29.73,5.44,41.61,6.55,11.2,19.4,21.88,32.27,24.82,13.82,3.15,29.34,2.47,41.61-5.44,11.96-7.71,20.73-18.42,24.82-32.27h0v-.02Z"/>
      <path class="cls-1" d="M1146.57,1211.52c12.99-59.82,27.56-119.29,43.68-178.34h-104.14c10.18,36.52,29.46,67.99,53.48,96.9,21.7,26.12,48.09,47.4,74.87,68.03,13.57,10.46,27.48,20.46,41.47,30.35,13.87-32.9,27.74-65.8,41.61-98.7-63.37-19.68-126.08-41.46-187.99-65.35-17.82-6.88-35.56-13.93-53.25-21.14-4.79,35.36-9.57,70.71-14.36,106.07,94.72,10.08,189.6,18.63,284.6,25.61,26.81,1.97,53.63,3.81,80.46,5.54,13.28.85,29-6.63,38.18-15.82,9.37-9.37,16.42-24.73,15.82-38.18s-5.21-28.45-15.82-38.18c-10.94-10.04-23.28-14.86-38.18-15.82-95.06-6.11-190.02-13.76-284.83-22.97-26.76-2.6-53.5-5.33-80.24-8.17-7.43-.28-14.37,1.27-20.81,4.65-6.69,2.18-12.49,5.9-17.38,11.17-8.19,8.92-13.23,18.95-14.85,31.01s-.08,24.38,6.41,34.43c2.81,3.64,5.63,7.29,8.44,10.93,6.74,6.69,14.68,11.32,23.83,13.89,61.44,25.07,123.7,48.1,186.69,68.99,18.13,6.01,36.31,11.84,54.55,17.51,12.56,3.9,30.49,1.72,41.61-5.44,10.03-6.47,17.44-14.78,22.09-25.82,4.53-10.73,6.41-23.77,2.72-35.16-1.81-4.3-3.63-8.6-5.44-12.9-4.8-8.11-11.26-14.57-19.37-19.37-13.99-9.89-27.9-19.89-41.47-30.35,3.64,2.81,7.29,5.63,10.93,8.44-25.26-19.56-49.43-40.84-69.17-66.09,2.81,3.64,5.63,7.29,8.44,10.93-10.74-13.92-19.95-28.89-26.89-45.06,1.81,4.3,3.63,8.6,5.44,12.9-2.94-7.02-5.44-14.18-7.48-21.51-3.17-11.37-10.12-20.91-19.35-28.05s-20.89-12.12-32.72-11.59c-9.59.43-18.77,2.89-27.25,7.37-11.66,6.16-21.4,19.76-24.82,32.27-16.12,59.05-30.69,118.52-43.68,178.34-3.08,14.16-2.02,28.86,5.44,41.61,6.55,11.2,19.4,21.88,32.27,24.82,13.82,3.15,29.34,2.47,41.61-5.44,11.46-7.39,21.83-18.53,24.82-32.27h0l.03-.04Z"/>
    </g>
  </g>
</svg>